<?xml version="1.0" encoding="utf-8"?>
<!-- Generator: Adobe Illustrator 26.0.1, SVG Export Plug-In . SVG Version: 6.00 Build 0)  -->
<svg version="1.1" id="Слой_1" xmlns="http://www.w3.org/2000/svg" xmlns:xlink="http://www.w3.org/1999/xlink" x="0px" y="0px"
	 viewBox="0 0 500 500" style="enable-background:new 0 0 500 500;" xml:space="preserve">
<style type="text/css">
	.st0{fill:#FFFFFF;}
</style>
<path class="st0" d="M54.94,143.93L54.94,143.93c9.76-9.76,25.58-9.76,35.34,0l142.26,142.26c9.76,9.76,25.58,9.76,35.34,0
	l141.51-141.51c9.76-9.76,25.58-9.76,35.34,0l0.02,0.02c9.76,9.76,9.76,25.58,0,35.34c-58.93,58.93-117.87,117.86-176.8,176.79
	c-9.76,9.76-25.58,9.76-35.34,0c-59.22-59.19-118.44-118.37-177.67-177.56C45.18,169.52,45.18,153.69,54.94,143.93z"/>
</svg>
