<?xml version="1.0" encoding="utf-8"?>
<!-- Generator: Adobe Illustrator 26.0.1, SVG Export Plug-In . SVG Version: 6.00 Build 0)  -->
<svg version="1.1" id="Слой_1" xmlns="http://www.w3.org/2000/svg" xmlns:xlink="http://www.w3.org/1999/xlink" x="0px" y="0px"
	 viewBox="0 0 1440 1400" style="enable-background:new 0 0 1440 1400;" xml:space="preserve">
<style type="text/css">
	.st0{fill:#FFFFFF;}
</style>
<g>
	<path class="st0" d="M-17,1415V508.64h863.92V381.45c0-42.16,34.67-76.45,77.28-76.45h349.68c42.61,0,77.28,34.3,77.28,76.45
		v127.18H1454V1415H-17z"/>
	<path d="M1273.88,310c39.85,0,72.28,32.05,72.28,71.45v122.18v10h10H1449V1410H-12V513.64h853.92h10v-10V381.45
		c0-39.4,32.42-71.45,72.28-71.45H1273.88 M1273.88,300H924.19c-45.44,0-82.28,36.47-82.28,81.45v122.18H-22V1420h1481V503.64
		h-102.85V381.45C1356.15,336.47,1319.32,300,1273.88,300L1273.88,300z"/>
</g>
</svg>
