<?xml version="1.0" encoding="utf-8"?>
<!-- Generator: Adobe Illustrator 26.0.1, SVG Export Plug-In . SVG Version: 6.00 Build 0)  -->
<svg version="1.1" id="Слой_1" xmlns="http://www.w3.org/2000/svg" xmlns:xlink="http://www.w3.org/1999/xlink" x="0px" y="0px"
	 viewBox="0 0 75 75" style="enable-background:new 0 0 75 75;" xml:space="preserve">
<style type="text/css">
	.st0{fill:#FFFFFF;}
</style>
<g>
	<rect x="2.5" y="2.5" class="st0" width="70" height="70"/>
	<path d="M70,5v65H5V5H70 M75,0H0v75h75V0L75,0z"/>
</g>
<g>
	<path d="M62,38L62,38c0,2.76-2.24,5-5,5H42v15c0,2.76-2.24,5-5,5h0c-2.76,0-5-2.24-5-5V43H17c-2.76,0-5-2.24-5-5v0
		c0-2.76,2.24-5,5-5h15V18c0-2.76,2.24-5,5-5h0c2.76,0,5,2.24,5,5v15h15C59.76,33,62,35.24,62,38z"/>
</g>
</svg>
