<?xml version="1.0" encoding="utf-8"?>
<!-- Generator: Adobe Illustrator 26.0.1, SVG Export Plug-In . SVG Version: 6.00 Build 0)  -->
<svg version="1.1" id="Слой_1" xmlns="http://www.w3.org/2000/svg" xmlns:xlink="http://www.w3.org/1999/xlink" x="0px" y="0px"
	 viewBox="0 0 1080 550" style="enable-background:new 0 0 1080 550;" xml:space="preserve">
<style type="text/css">
	.st0{fill:#FFFFFF;}
</style>
<g>
	<path class="st0" d="M35,545c-16.5,0-30-13.5-30-30V35C5,18.5,18.5,5,35,5h1010c16.5,0,30,13.5,30,30v480c0,16.5-13.5,30-30,30H35z
		"/>
	<path d="M1045,10c13.8,0,25,11.2,25,25v480c0,13.8-11.2,25-25,25H35c-13.8,0-25-11.2-25-25V35c0-13.8,11.2-25,25-25H1045 M1045,0
		H35C15.7,0,0,15.7,0,35v480c0,19.3,15.7,35,35,35h1010c19.3,0,35-15.7,35-35V35C1080,15.7,1064.3,0,1045,0L1045,0z"/>
</g>
</svg>
