<?xml version="1.0" encoding="utf-8"?>
<!-- Generator: Adobe Illustrator 26.0.1, SVG Export Plug-In . SVG Version: 6.00 Build 0)  -->
<svg version="1.1" id="Слой_1" xmlns="http://www.w3.org/2000/svg" xmlns:xlink="http://www.w3.org/1999/xlink" x="0px" y="0px"
	 viewBox="0 0 500 500" style="enable-background:new 0 0 500 500;" xml:space="preserve">
<g>
	<path d="M92.64,248.29c-4.63-4.63-7.17-10.78-7.17-17.32c0-6.54,2.55-12.69,7.17-17.32c4.64-4.64,10.79-7.18,17.33-7.18
		c6.54,0,12.69,2.55,17.32,7.17l88.72,88.72l157.06-157.07c4.63-4.63,10.78-7.18,17.32-7.18c6.54,0,12.69,2.55,17.32,7.17
		c9.55,9.55,9.55,25.09,0,34.64L250.66,336.99l0.03,0.03l-34.66,34.66L92.64,248.29z"/>
	<path d="M390.39,137.61v1c6.41,0,12.44,2.5,16.97,7.03c9.36,9.36,9.36,24.58,0,33.94L250.65,336.29l-0.68,0.74l0,0l-33.95,33.95
		L92.99,247.94c-9.36-9.36-9.36-24.58,0.01-33.95c4.53-4.53,10.56-7.03,16.97-7.03c6.41,0,12.44,2.5,16.97,7.03l88.37,88.37
		l0.71,0.71l0.71-0.71l156.71-156.71c4.53-4.53,10.56-7.03,16.97-7.03V137.61 M390.39,137.61c-6.4,0-12.79,2.44-17.68,7.32
		L216.01,301.65l-88.37-88.37c-4.88-4.88-11.28-7.32-17.67-7.32s-12.79,2.44-17.67,7.32l-0.01,0.01c-9.76,9.76-9.76,25.59,0,35.35
		l123.75,123.75l35.36-35.36l-0.03-0.03l156.71-156.72c9.76-9.76,9.76-25.59,0-35.35l0,0C403.18,140.05,396.79,137.61,390.39,137.61
		L390.39,137.61z"/>
</g>
</svg>
