<?xml version="1.0" encoding="utf-8"?>
<!-- Generator: Adobe Illustrator 26.0.1, SVG Export Plug-In . SVG Version: 6.00 Build 0)  -->
<svg version="1.1" id="Слой_1" xmlns="http://www.w3.org/2000/svg" xmlns:xlink="http://www.w3.org/1999/xlink" x="0px" y="0px"
	 viewBox="0 0 500 500" style="enable-background:new 0 0 500 500;" xml:space="preserve">
<style type="text/css">
	.st0{fill:#C09B31;}
	.st1{fill:url(#SVGID_1_);}
	.st2{fill:#BEA533;}
</style>
<g>
	<path class="st0" d="M250,495c-65.44,0-126.97-25.48-173.24-71.76S5,315.44,5,250c0-65.44,25.48-126.97,71.76-173.24
		S184.56,5,250,5c65.44,0,126.97,25.48,173.24,71.76S495,184.56,495,250c0,65.44-25.48,126.97-71.76,173.24S315.44,495,250,495z"/>
	<path d="M250,10c32.4,0,63.83,6.34,93.42,18.86c28.58,12.09,54.25,29.39,76.29,51.44c22.04,22.04,39.35,47.71,51.44,76.29
		C483.66,186.17,490,217.6,490,250s-6.34,63.83-18.86,93.42c-12.09,28.58-29.39,54.25-51.44,76.29
		c-22.04,22.04-47.71,39.35-76.29,51.44C313.83,483.66,282.4,490,250,490s-63.83-6.34-93.42-18.86
		c-28.58-12.09-54.25-29.39-76.29-51.44c-22.04-22.04-39.35-47.71-51.44-76.29C16.34,313.83,10,282.4,10,250s6.34-63.83,18.86-93.42
		c12.09-28.58,29.39-54.25,51.44-76.29c22.04-22.04,47.71-39.35,76.29-51.44C186.17,16.34,217.6,10,250,10 M250,0
		C111.93,0,0,111.93,0,250s111.93,250,250,250s250-111.93,250-250S388.07,0,250,0L250,0z"/>
</g>
<g>
	<radialGradient id="SVGID_1_" cx="249.6721" cy="249.7539" r="194.9999" gradientUnits="userSpaceOnUse">
		<stop  offset="0.7951" style="stop-color:#C09B31"/>
		<stop  offset="1" style="stop-color:#BA6F00"/>
	</radialGradient>
	<circle class="st1" cx="249.67" cy="249.75" r="195"/>
	<path d="M249.67,59.75c25.65,0,50.54,5.02,73.95,14.93c22.62,9.57,42.94,23.27,60.4,40.72c17.45,17.45,31.15,37.77,40.72,60.4
		c9.9,23.42,14.93,48.3,14.93,73.95s-5.02,50.54-14.93,73.95c-9.57,22.62-23.27,42.94-40.72,60.4s-37.77,31.15-60.4,40.72
		c-23.42,9.9-48.3,14.93-73.95,14.93s-50.54-5.02-73.95-14.93c-22.62-9.57-42.94-23.27-60.4-40.72
		c-17.45-17.45-31.15-37.77-40.72-60.4c-9.9-23.42-14.93-48.3-14.93-73.95s5.02-50.54,14.93-73.95
		c9.57-22.62,23.27-42.94,40.72-60.4c17.45-17.45,37.77-31.15,60.4-40.72C199.14,64.78,224.02,59.75,249.67,59.75 M249.67,49.75
		c-110.46,0-200,89.54-200,200s89.54,200,200,200s200-89.54,200-200S360.13,49.75,249.67,49.75L249.67,49.75z"/>
</g>
<g>
	<path class="st2" d="M224,393v-38.98l-3.65-1.02C174.22,340.04,142,297.48,142,249.5c0-47.98,32.22-90.54,78.35-103.5l3.65-1.02
		V105h52v40.22l3.6,1.05c24.19,7.05,44.99,22.28,59.06,43.15l-33.65,19.43c-5.77-7.76-13.14-14.28-21.56-19.02
		c-10.24-5.77-21.9-8.82-33.73-8.82c-11.6,0-23.05,2.94-33.13,8.49c-22.01,12.1-35.69,35.22-35.69,60.33
		c0,25.11,13.68,48.23,35.69,60.33c10.08,5.55,21.53,8.49,33.13,8.49c11.84,0,23.51-3.06,33.74-8.84
		c8.85-4.98,16.51-11.89,22.39-20.16l33.28,19.21c-14.06,21.25-35.03,36.74-59.53,43.87l-3.6,1.05V393H224z"/>
	<path d="M271,110v31.47v7.5l7.2,2.1c21.34,6.22,39.91,19.11,53.19,36.77l-25.14,14.52c-5.71-6.78-12.62-12.54-20.34-16.89
		c-10.99-6.19-23.5-9.47-36.19-9.47c-12.44,0-24.73,3.15-35.54,9.11c-23.61,12.99-38.28,37.78-38.28,64.71s14.67,51.73,38.27,64.71
		c10.82,5.96,23.11,9.11,35.55,9.11c12.7,0,25.22-3.28,36.18-9.47c8.17-4.59,15.39-10.72,21.27-17.99l24.74,14.28
		c-13.31,18.02-32.06,31.17-53.71,37.47l-7.21,2.1v7.5V388h-42v-30.19v-7.58l-7.3-2.05c-21.08-5.92-40.09-18.8-53.52-36.27
		C154.33,293.88,147,272.3,147,249.5c0-22.8,7.33-44.38,21.19-62.41c13.43-17.47,32.44-30.35,53.52-36.27l7.3-2.05v-7.58V110H271
		 M281,100h-62v41.19c-47.31,13.29-82,56.75-82,108.31s34.69,95.02,82,108.31V398h62v-40.47c27.55-8.02,50.73-26.29,65.13-50.41
		l-41.86-24.16c-5.69,9.35-13.72,17.12-23.27,22.49c-9.24,5.22-19.91,8.19-31.28,8.19c-11.13,0-21.61-2.85-30.72-7.87
		c-19.73-10.85-33.1-31.84-33.1-55.95c0-24.11,13.37-45.1,33.1-55.95c9.11-5.02,19.59-7.87,30.72-7.87
		c11.37,0,22.04,2.97,31.28,8.18c9.14,5.15,16.88,12.49,22.52,21.3l42.17-24.35c-14.44-23.75-37.43-41.72-64.69-49.66V100L281,100z"
		/>
</g>
</svg>
