<?xml version="1.0" encoding="utf-8"?>
<!-- Generator: Adobe Illustrator 26.0.1, SVG Export Plug-In . SVG Version: 6.00 Build 0)  -->
<svg version="1.1" id="Слой_1" xmlns="http://www.w3.org/2000/svg" xmlns:xlink="http://www.w3.org/1999/xlink" x="0px" y="0px"
	 viewBox="0 0 500 500" style="enable-background:new 0 0 500 500;" xml:space="preserve">
<style type="text/css">
	.st0{fill:#29ABE2;}
	.st1{fill:none;stroke:#29ABE2;stroke-width:12;stroke-linecap:round;stroke-linejoin:round;stroke-miterlimit:10;}
	.st2{fill:#A1856F;stroke:#000000;stroke-width:10;stroke-miterlimit:10;}
	.st3{fill:#BC9C85;stroke:#000000;stroke-width:5;stroke-miterlimit:10;}
	.st4{fill:#BC9C85;stroke:#000000;stroke-width:10;stroke-miterlimit:10;}
	.st5{fill:none;stroke:#000000;stroke-width:10;stroke-miterlimit:10;}
	.st6{fill:none;stroke:#FFFFFF;stroke-width:10;stroke-miterlimit:10;}
	.st7{opacity:0.5;fill:#29ABE2;}
	.st8{fill:none;stroke:#000000;stroke-width:5;stroke-miterlimit:10;}
	.st9{fill:#FFFFFF;}
	.st10{fill:#00FF00;stroke:#000000;stroke-width:5;stroke-miterlimit:10;}
	.st11{fill:none;stroke:#000000;stroke-width:5;stroke-linecap:round;stroke-miterlimit:10;}
	.st12{fill:#FFFFFF;stroke:#000000;stroke-width:5;stroke-linecap:round;stroke-miterlimit:10;}
	.st13{fill:#00FF00;stroke:#000000;stroke-width:5;stroke-linecap:round;stroke-miterlimit:10;}
	.st14{fill:none;stroke:#FFFFFF;stroke-width:10;stroke-linecap:round;stroke-linejoin:round;stroke-miterlimit:10;}
</style>
<g>
	<path class="st0" d="M342,383c-2.76,0-5,2.24-5,5s2.24,5,5,5s5-2.24,5-5S344.76,383,342,383L342,383z"/>
</g>
<g>
	<path class="st0" d="M162,383c-2.76,0-5,2.24-5,5s2.24,5,5,5s5-2.24,5-5S164.76,383,162,383L162,383z"/>
</g>
<line class="st1" x1="178" y1="388" x2="206" y2="388"/>
<line class="st1" x1="298" y1="388" x2="326" y2="388"/>
<line class="st1" x1="223" y1="388" x2="281" y2="388"/>
<path class="st2" d="M402.5,244.5c0,52.15-26.61,98.08-67,124.95l-12.5-0.07l-150-0.82l-4.87-0.03
	c-15.77-10.75-29.39-24.43-40.06-40.25c-2.26-3.34-4.38-6.77-6.35-10.29c-4.42-7.83-8.15-16.11-11.12-24.73
	c-1.3-3.8-2.46-7.66-3.46-11.59c-3.03-11.88-4.64-24.34-4.64-37.17c0-26.28,6.76-50.98,18.64-72.46
	c11.77-21.3,28.57-39.43,48.8-52.79c20.49-13.53,44.49-22.17,70.35-24.25c4.02-0.33,8.1-0.5,12.21-0.5c0.99,0,1.97,0.01,2.95,0.03
	c13.96,0.27,27.45,2.44,40.23,6.28c4.87,1.46,9.64,3.17,14.29,5.1C364.29,128.46,402.5,182.02,402.5,244.5z"/>
<circle class="st3" cx="350.5" cy="222.5" r="34.5"/>
<circle class="st4" cx="303.5" cy="170.5" r="15"/>
<circle class="st3" cx="172" cy="246" r="18"/>
<path class="st3" d="M148,303c0,12.27-8.5,22.55-19.93,25.28c-2.26-3.34-4.38-6.77-6.35-10.29c-4.42-7.83-8.15-16.11-11.12-24.73
	c-1.3-3.8-2.46-7.66-3.46-11.59c4.21-2.95,9.33-4.67,14.86-4.67C136.36,277,148,288.64,148,303z"/>
<circle class="st5" cx="198" cy="186" r="4.5"/>
<path class="st3" d="M183,147c0,19.88-16.12,36-36,36c-10.15,0-19.32-4.2-25.86-10.96c11.77-21.3,28.57-39.43,48.8-52.79
	C177.92,125.86,183,135.84,183,147z"/>
<path class="st3" d="M309.97,105.91C309.23,124.86,293.64,140,274.5,140c-19.61,0-35.5-15.89-35.5-35.5c0-3.29,0.45-6.48,1.29-9.5
	c4.02-0.33,8.1-0.5,12.21-0.5c0.99,0,1.97,0.01,2.95,0.03c13.96,0.27,27.45,2.44,40.23,6.28
	C300.55,102.27,305.32,103.98,309.97,105.91z"/>
<path class="st5" d="M402.5,244.5c0,52.15-26.61,98.08-67,124.95l-12.5-0.07l-150-0.82l-4.87-0.03
	c-15.77-10.75-29.39-24.43-40.06-40.25c-2.26-3.34-4.38-6.77-6.35-10.29c-4.42-7.83-8.15-16.11-11.12-24.73
	c-1.3-3.8-2.46-7.66-3.46-11.59c-3.03-11.88-4.64-24.34-4.64-37.17c0-26.28,6.76-50.98,18.64-72.46
	c11.77-21.3,28.57-39.43,48.8-52.79c20.49-13.53,44.49-22.17,70.35-24.25c4.02-0.33,8.1-0.5,12.21-0.5c0.99,0,1.97,0.01,2.95,0.03
	c13.96,0.27,27.45,2.44,40.23,6.28c4.87,1.46,9.64,3.17,14.29,5.1C364.29,128.46,402.5,182.02,402.5,244.5z"/>
<path class="st6" d="M323,206v163.38l-150-0.82V206c0-5.49,0.59-10.85,1.71-16c7.33-33.73,37.36-59,73.29-59s65.96,25.27,73.29,59
	C322.41,195.15,323,200.51,323,206z"/>
<path class="st7" d="M323,205.62V369l-150-0.82V205.62c0-5.49,0.59-10.85,1.71-16c7.33-33.73,37.36-59,73.29-59
	s65.96,25.27,73.29,59C322.41,194.77,323,200.13,323,205.62z"/>
<path class="st8" d="M252.5,368.53c0,0-55.8-40.53-30.15-111.53"/>
<polygon class="st9" points="417.33,160.67 422.5,163.5 417.33,166.33 414.5,171.5 411.67,166.33 406.5,163.5 411.67,160.67 
	414.5,155.5 "/>
<polygon class="st9" points="118.99,83.01 134.5,91.5 118.99,99.99 110.5,115.5 102.01,99.99 86.5,91.5 102.01,83.01 110.5,67.5 "/>
<path class="st8" d="M218.91,318c0,0,7.09-12,17.09-11"/>
<path class="st10" d="M221.98,258.03c0,0-47.98-3.03-20.98-55.03C201,203,241.97,222.06,221.98,258.03"/>
<line class="st11" x1="222" y1="258" x2="210" y2="231"/>
<path class="st12" d="M269.5,387.5"/>
<path class="st13" d="M234.05,306.94c0,0-4.05-37.94,58.95-35.94c0,0-18.5,62.5-58.95,37.3"/>
<line class="st11" x1="234.5" y1="306.5" x2="263.5" y2="289.5"/>
<line class="st14" x1="190" y1="323" x2="190" y2="288"/>
<g>
	<path class="st9" d="M190,268c-2.76,0-5,2.24-5,5s2.24,5,5,5s5-2.24,5-5S192.76,268,190,268L190,268z"/>
</g>
<line class="st1" x1="359.01" y1="369" x2="145" y2="369"/>
</svg>
