<?xml version="1.0" encoding="utf-8"?>
<!-- Generator: Adobe Illustrator 26.0.1, SVG Export Plug-In . SVG Version: 6.00 Build 0)  -->
<svg version="1.1" id="Слой_1" xmlns="http://www.w3.org/2000/svg" xmlns:xlink="http://www.w3.org/1999/xlink" x="0px" y="0px"
	 viewBox="0 0 500 500" style="enable-background:new 0 0 500 500;" xml:space="preserve">
<style type="text/css">
	.st0{fill:#A1856D;stroke:#000000;stroke-width:10;stroke-miterlimit:10;}
	.st1{fill:#BC9C85;stroke:#000000;stroke-width:5;stroke-miterlimit:10;}
	.st2{fill:#BC9C85;stroke:#000000;stroke-width:10;stroke-miterlimit:10;}
	.st3{fill:none;stroke:#000000;stroke-width:10;stroke-miterlimit:10;}
	.st4{fill:none;stroke:#FFFFFF;stroke-width:10;stroke-miterlimit:10;}
	.st5{opacity:0.5;fill:#29ABE2;}
	.st6{fill:none;stroke:#000000;stroke-width:5;stroke-miterlimit:10;}
	.st7{fill:#00FF00;stroke:#000000;stroke-width:5;stroke-miterlimit:10;}
	.st8{fill:none;stroke:#000000;stroke-width:5;stroke-linecap:round;stroke-miterlimit:10;}
	.st9{fill:#00FF00;stroke:#000000;stroke-width:5;stroke-linecap:round;stroke-miterlimit:10;}
	.st10{fill:none;stroke:#FFFFFF;stroke-width:10;stroke-linecap:round;stroke-linejoin:round;stroke-miterlimit:10;}
	.st11{fill:#FFFFFF;}
</style>
<circle class="st0" cx="252.5" cy="244.5" r="150"/>
<circle class="st1" cx="350.5" cy="222.5" r="34.5"/>
<circle class="st2" cx="303.5" cy="170.5" r="15"/>
<circle class="st1" cx="172" cy="246" r="18"/>
<path class="st1" d="M148,303c0,12.3-8.5,22.5-19.9,25.3c-2.3-3.3-4.4-6.8-6.3-10.3c-4.4-7.8-8.2-16.1-11.1-24.7
	c-1.3-3.8-2.5-7.7-3.5-11.6c4.2-3,9.3-4.7,14.9-4.7C136.4,277,148,288.6,148,303z"/>
<circle class="st3" cx="198" cy="186" r="4.5"/>
<path class="st1" d="M183,147c0,19.9-16.1,36-36,36c-10.1,0-19.3-4.2-25.9-11c11.8-21.3,28.6-39.4,48.8-52.8
	C177.9,125.9,183,135.8,183,147z"/>
<path class="st1" d="M310,105.9c-0.7,18.9-16.3,34.1-35.5,34.1c-19.6,0-35.5-15.9-35.5-35.5c0-3.3,0.4-6.5,1.3-9.5
	c4-0.3,8.1-0.5,12.2-0.5c1,0,2,0,2.9,0c14,0.3,27.4,2.4,40.2,6.3C300.5,102.3,305.3,104,310,105.9z"/>
<circle class="st3" cx="252.5" cy="244.5" r="150"/>
<path class="st4" d="M323,206v170.9c-21,11.2-45,17.6-70.5,17.6c-29.2,0-56.5-8.3-79.5-22.8V206c0-5.5,0.6-10.8,1.7-16
	c7.3-33.7,37.4-59,73.3-59s66,25.3,73.3,59C322.4,195.2,323,200.5,323,206z"/>
<path class="st5" d="M323,205.6v171.3c-21,11.2-45,17.6-70.5,17.6c-29.2,0-56.5-8.3-79.5-22.8V205.6c0-5.5,0.6-10.8,1.7-16
	c7.3-33.7,37.4-59,73.3-59s66,25.3,73.3,59C322.4,194.8,323,200.1,323,205.6z"/>
<path class="st6" d="M252.5,368.5c0,0-55.8-40.5-30.1-111.5"/>
<path class="st6" d="M218.9,318c0,0,7.1-12,17.1-11"/>
<path class="st7" d="M222,258c0,0-48-3-21-55C201,203,242,222.1,222,258"/>
<line class="st8" x1="222" y1="258" x2="210" y2="231"/>
<path class="st9" d="M234.1,306.9c0,0-4.1-37.9,58.9-35.9c0,0-18.5,62.5-58.9,37.3"/>
<line class="st8" x1="234.5" y1="306.5" x2="263.5" y2="289.5"/>
<line class="st10" x1="190" y1="323" x2="190" y2="288"/>
<g>
	<path class="st11" d="M190,268c-2.8,0-5,2.2-5,5s2.2,5,5,5s5-2.2,5-5S192.8,268,190,268L190,268z"/>
</g>
</svg>
