<?xml version="1.0" encoding="utf-8"?>
<!-- Generator: Adobe Illustrator 26.0.1, SVG Export Plug-In . SVG Version: 6.00 Build 0)  -->
<svg version="1.1" id="Слой_1" xmlns="http://www.w3.org/2000/svg" xmlns:xlink="http://www.w3.org/1999/xlink" x="0px" y="0px"
	 viewBox="0 0 500 500" style="enable-background:new 0 0 500 500;" xml:space="preserve">
<style type="text/css">
	.st0{fill:#0071BC;stroke:#000000;stroke-width:2;stroke-miterlimit:10;}
	.st1{fill:#00FF00;}
</style>
<circle class="st0" cx="263.79" cy="247.5" r="224.5"/>
<g>
	<g>
		<polygon class="st1" points="197.65,337.5 200.21,333.67 258.15,378.48 254.46,382.23 		"/>
		<path d="M200.33,334.4l57.08,44.14l-2.99,3.03l-56.09-44.17L200.33,334.4 M200.09,332.95l-3.11,4.66l57.52,45.29l4.4-4.47
			L200.09,332.95L200.09,332.95z"/>
	</g>
	<g>
		<polygon class="st1" points="254.97,383.13 258.29,379.77 254.01,428.53 247.48,438.12 		"/>
		<path d="M257.67,381.11l-4.14,47.24l-5.26,7.73l7.18-52.71L257.67,381.11 M258.91,378.43l-4.4,4.47l-7.8,57.25l7.8-11.45
			L258.91,378.43L258.91,378.43z"/>
	</g>
	<g>
		<polygon class="st1" points="134.09,409.06 137.44,352.1 196.86,338.15 253.97,383.12 246.25,439.73 187.79,450.86 		"/>
		<path d="M196.74,338.69l56.69,44.64l-7.63,55.97l-57.89,11.03l-53.32-41.51l3.32-56.33L196.74,338.69 M196.98,337.61l-60.02,14.08
			l-3.39,57.6l54.09,42.11l59.04-11.25l7.8-57.25L196.98,337.61L196.98,337.61z"/>
	</g>
	<g>
		<polygon class="st1" points="139.86,345.81 199,333.68 196.68,337.17 137.79,350.99 		"/>
		<path d="M197.91,334.42l-1.54,2.31l-57.76,13.55l1.62-4.03L197.91,334.42 M200.09,332.95l-60.59,12.43l-2.53,6.32l60.02-14.08
			L200.09,332.95L200.09,332.95z"/>
	</g>
</g>
<g>
	<g>
		<polygon class="st1" points="243.35,220.46 279.9,179.34 282.64,187.56 244.69,228.55 		"/>
		<path d="M279.7,180.32l2.37,7.12l-37.05,40.02l-1.14-6.84L279.7,180.32 M280.1,178.36l-37.29,41.95l1.55,9.32l38.84-41.95
			L280.1,178.36L280.1,178.36z"/>
	</g>
	<g>
		<polygon class="st1" points="188.79,221.41 186.1,214.68 242.38,220.77 243.76,229.04 		"/>
		<path d="M186.88,215.27l55.08,5.95l1.21,7.23l-54.01-7.5L186.88,215.27 M185.33,214.1l3.11,7.77l55.93,7.77l-1.55-9.32
			L185.33,214.1L185.33,214.1z"/>
	</g>
	<g>
		<polygon class="st1" points="185.7,213.63 168.81,162.95 205.72,122.96 259.55,129.11 279.52,178.26 242.61,219.79 		"/>
		<path d="M205.92,123.48l53.28,6.09l19.74,48.59l-36.53,41.1l-56.33-6.09l-16.7-50.1L205.92,123.48 M205.53,122.43l-37.29,40.39
			l17.09,51.27l57.48,6.21l37.29-41.95l-20.2-49.72L205.53,122.43L205.53,122.43z"/>
	</g>
</g>
<g>
	<g>
		<polygon class="st1" points="165.85,75.51 214.54,54.08 218.12,65.44 171.62,85.29 		"/>
		<path d="M214.23,54.76l3.28,10.4l-45.68,19.5l-5.26-8.91L214.23,54.76 M214.85,53.4l-49.72,21.89l6.28,10.64l47.32-20.2
			L214.85,53.4L214.85,53.4z"/>
	</g>
	<g>
		<polygon class="st1" points="136.77,80.81 134.28,73.41 164.83,75.76 170.46,85.29 		"/>
		<path d="M135,73.96l29.54,2.28l4.97,8.42l-32.37-4.31L135,73.96 M133.57,72.85l2.82,8.41l35.02,4.66l-6.28-10.64L133.57,72.85
			L133.57,72.85z"/>
	</g>
	<g>
		<polygon class="st1" points="215.4,53.47 227.66,34.28 228.16,41.96 218.8,64.27 		"/>
		<path d="M227.26,35.84l0.39,6.04l-8.78,20.94l-2.92-9.28L227.26,35.84 M228.06,32.73L214.85,53.4l3.88,12.33l9.93-23.68
			L228.06,32.73L228.06,32.73z"/>
	</g>
	<g>
		<polygon class="st1" points="134.45,72.42 147.61,52.14 190.88,32.04 227.76,32.04 214.51,53 165.05,74.77 		"/>
		<path d="M226.85,32.54L214.17,52.6l-49.21,21.66l-29.63-2.28l12.62-19.46l43.04-19.98H226.85 M228.66,31.54h-37.9l-43.5,20.2
			l-13.7,21.11l31.56,2.43l49.72-21.89L228.66,31.54L228.66,31.54z"/>
	</g>
</g>
<g>
	<g>
		<polygon class="st1" points="196.1,90.49 220.55,55.34 275.27,53.9 305.09,78.27 285.24,111.86 228.82,117.93 		"/>
		<path d="M275.1,54.41l29.34,23.98l-19.51,33.01l-55.95,6.01l-32.21-27l24.05-34.57L275.1,54.41 M275.44,53.4l-55.15,1.45
			l-24.86,35.73l33.23,27.86l56.88-6.11l20.2-34.18L275.44,53.4L275.44,53.4z"/>
	</g>
	<g>
		<polygon class="st1" points="197.45,99.64 196.15,91.84 228.14,118.67 227.63,125.3 		"/>
		<path d="M196.86,93.09l30.77,25.79l-0.42,5.4l-29.3-24.91L196.86,93.09 M195.43,90.58l1.55,9.32l31.07,26.41l0.61-7.87
			L195.43,90.58L195.43,90.58z"/>
	</g>
	<g>
		<polygon class="st1" points="229.13,118.9 285.07,112.89 285.59,121.97 228.6,125.78 		"/>
		<path d="M284.6,113.44l0.46,8.06l-55.92,3.74l0.45-5.89L284.6,113.44 M285.54,112.33l-56.88,6.11l-0.61,7.87l58.06-3.88
			L285.54,112.33L285.54,112.33z"/>
	</g>
	<g>
		<polygon class="st1" points="286.05,112.46 305.24,79.98 305.24,85.8 286.51,120.63 		"/>
		<path d="M304.74,81.81v3.86l-17.83,33.17l-0.36-6.26L304.74,81.81 M305.74,78.15l-20.2,34.18l0.57,10.1l19.62-36.51V78.15
			L305.74,78.15z"/>
	</g>
</g>
<g>
	<g>
		<polygon class="st1" points="335.86,194.21 375.47,174.35 369.89,181.58 335.86,198.5 		"/>
		<path d="M373.73,175.78l-4.17,5.4l-33.2,16.51v-3.17L373.73,175.78 M377.2,172.93l-41.85,20.97v5.4l34.86-17.33L377.2,172.93
			L377.2,172.93z"/>
	</g>
	<g>
		<g>
			<polygon class="st1" points="275.95,124.07 277.48,120.42 282.7,168.52 280.43,173.39 			"/>
			<path d="M277.19,122.4l4.99,46.04l-1.42,3.06l-4.3-47.35L277.19,122.4 M277.77,118.45l-2.33,5.54l4.66,51.3l3.11-6.69
				L277.77,118.45L277.77,118.45z"/>
		</g>
		<g>
			<polygon class="st1" points="280.77,175.04 283.45,169.27 334.86,194.21 334.86,198.54 			"/>
			<path d="M283.69,169.95l50.67,24.58v3.25l-52.92-23L283.69,169.95 M283.21,168.6l-3.11,6.69l55.26,24.01v-5.4L283.21,168.6
				L283.21,168.6z"/>
		</g>
		<g>
			<polygon class="st1" points="283.68,168.27 278.31,118.74 321.27,97.36 369.75,122.76 376.66,172.64 335.35,193.34 			"/>
			<path d="M321.26,97.92l48.03,25.16l6.82,49.27l-40.77,20.43l-51.21-24.84l-5.3-48.91L321.26,97.92 M321.27,96.8l-43.5,21.65
				l5.44,50.16l52.15,25.3l41.85-20.97l-6.99-50.49L321.27,96.8L321.27,96.8z"/>
		</g>
	</g>
</g>
<g>
	<g>
		<polygon class="st1" points="259.62,383.87 257.6,331.3 307.76,300.79 355.78,323.24 355.78,376.12 307.69,402.62 		"/>
		<path d="M307.79,301.36l47.49,22.2v52.27l-47.62,26.24l-47.55-18.54l-2-51.95L307.79,301.36 M307.73,300.22l-50.65,30.8l2.04,53.2
			l48.6,18.95l48.55-26.75v-53.5L307.73,300.22L307.73,300.22z"/>
	</g>
	<g>
		<polygon class="st1" points="257.58,323.61 306.31,294.94 307.18,299.97 257.58,330.13 		"/>
		<path d="M305.94,295.74l0.69,3.98l-48.54,29.52v-5.35L305.94,295.74 M306.68,294.14l-49.6,29.18v7.7l50.65-30.8L306.68,294.14
			L306.68,294.14z"/>
	</g>
	<g>
		<polygon class="st1" points="308.18,299.88 307.34,295.01 351.99,316.24 355.09,321.81 		"/>
		<path d="M308,295.87l43.63,20.75l2.27,4.08l-45.27-21.16L308,295.87 M306.68,294.14l1.05,6.08l48.55,22.7l-3.93-7.06
			L306.68,294.14L306.68,294.14z"/>
	</g>
</g>
<g>
	<polygon class="st1" points="255.07,245.16 281.96,194.4 340.95,194.4 369.64,242.08 341.94,294.39 285.04,295.93 	"/>
	<path d="M340.67,194.9l28.4,47.19l-27.43,51.81l-56.31,1.52l-29.68-50.28l26.61-50.24H340.67 M341.23,193.9h-59.58l-27.15,51.27
		l30.26,51.27l57.48-1.55l27.97-52.82L341.23,193.9L341.23,193.9z"/>
</g>
<g>
	<g>
		<polygon class="st1" points="86.57,149.86 80.16,123.38 92.51,129.79 104.39,155.05 		"/>
		<path d="M80.9,124.33l11.23,5.82l11.34,24.1l-16.48-4.79L80.9,124.33 M79.41,122.43l6.74,27.83l19.17,5.57l-12.43-26.41
			L79.41,122.43L79.41,122.43z"/>
	</g>
	<g>
		<polygon class="st1" points="70.2,200.61 86.48,150.88 104.68,156.17 87.15,207.95 		"/>
		<path d="M86.8,151.49l17.24,5.01l-17.18,50.77l-16.03-6.94L86.8,151.49 M86.15,150.26l-16.57,50.63l17.87,7.73l17.87-52.79
			L86.15,150.26L86.15,150.26z"/>
	</g>
	<g>
		<polygon class="st1" points="47.82,219.92 69.67,201.47 86.33,208.68 63.9,221.35 		"/>
		<path d="M69.76,202.05l15.45,6.69l-21.42,12.1l-14.73-1.31L69.76,202.05 M69.58,200.89l-23,19.42l17.43,1.55l23.44-13.24
			L69.58,200.89L69.58,200.89z"/>
	</g>
	<g>
		<polygon class="st1" points="38.2,193.9 55.12,145.63 79.13,123.38 85.63,150.24 69.15,200.6 46.82,219.46 		"/>
		<path d="M78.84,124.33l6.27,25.9l-16.39,50.09L47.06,218.6l-8.34-24.69l16.83-47.99L78.84,124.33 M79.41,122.43l-24.72,22.92
			L37.67,193.9l8.92,26.41l23-19.42l16.57-50.63L79.41,122.43L79.41,122.43z"/>
	</g>
</g>
<g>
	<g>
		<polygon class="st1" points="143.49,275.15 176.94,232.57 186.88,236.83 156.38,278.01 		"/>
		<path d="M177.1,233.19l9.01,3.86l-29.93,40.41l-11.8-2.62L177.1,233.19 M176.79,231.96l-34.18,43.5l13.98,3.11l31.07-41.95
			L176.79,231.96L176.79,231.96z"/>
	</g>
	<g>
		<polygon class="st1" points="177.23,231.61 168.88,180.25 174.25,182.5 186.94,235.77 		"/>
		<path d="M169.52,181.06l4.31,1.8l12.4,52.06l-8.54-3.66L169.52,181.06 M168.24,179.44l8.54,52.52l10.88,4.66l-12.98-54.49
			L168.24,179.44L168.24,179.44z"/>
	</g>
	<g>
		<polygon class="st1" points="99.54,264.18 90.89,211.52 122.58,171.92 167.8,179.88 176.26,231.83 142.41,274.9 		"/>
		<path d="M122.78,172.46l44.58,7.85l8.36,51.39l-33.51,42.65l-42.24-10.56l-8.57-52.12L122.78,172.46 M122.37,171.37l-32.02,40.01
			l8.75,53.21l43.5,10.88l34.18-43.5l-8.54-52.52L122.37,171.37L122.37,171.37z"/>
	</g>
</g>
</svg>
