<?xml version="1.0" encoding="utf-8"?>
<!-- Generator: Adobe Illustrator 26.0.1, SVG Export Plug-In . SVG Version: 6.00 Build 0)  -->
<svg version="1.1" id="Слой_1" xmlns="http://www.w3.org/2000/svg" xmlns:xlink="http://www.w3.org/1999/xlink" x="0px" y="0px"
	 viewBox="0 0 500 500" style="enable-background:new 0 0 500 500;" xml:space="preserve">
<style type="text/css">
	.st0{fill:#FFFFFF;}
</style>
<g>
	<path d="M155,422.5c-15.16,0-27.5-12.34-27.5-27.5V255c0-13.73,10.24-25.45,23.83-27.25l2.17-0.29V174
		c0-53.21,43.29-96.5,96.5-96.5c25.27,0,49.16,9.7,67.27,27.31c18.07,17.57,28.44,41.11,29.18,66.27c0.04,0.99,0.05,1.96,0.05,2.93
		v53.46l2.17,0.29c13.58,1.8,23.83,13.52,23.83,27.25v140c0,15.16-12.34,27.5-27.5,27.5L155,422.5L155,422.5z M250,96.5
		c-42.73,0-77.5,34.77-77.5,77.5v53.5h155V174C327.5,131.27,292.73,96.5,250,96.5z"/>
	<path d="M250,80c24.62,0,47.89,9.45,65.53,26.6c17.6,17.12,27.7,40.04,28.43,64.55v0.03v0.03c0.03,0.8,0.05,1.66,0.05,2.8v51.27
		v4.38l4.34,0.58C360.69,231.87,370,242.52,370,255v140c0,13.79-11.21,25-25,25H155c-13.79,0-25-11.21-25-25V255
		c0-12.48,9.31-23.13,21.66-24.77l4.34-0.58v-4.38V174C156,122.17,198.17,80,250,80 M170,230h5h150h5v-5v-51c0-44.11-35.89-80-80-80
		s-80,35.89-80,80v51V230 M250,75c-54.68,0-99,44.32-99,99v51.27c-14.68,1.95-26,14.52-26,29.73v140c0,16.57,13.43,30,30,30h190
		c16.57,0,30-13.43,30-30V255c0-15.21-11.32-27.78-26-29.73V174c0-1-0.01-2-0.05-3C347.37,117.71,303.68,75,250,75L250,75z M175,225
		v-51c0-41.42,33.58-75,75-75s75,33.58,75,75v51H175L175,225z"/>
</g>
<g>
	<path class="st0" d="M349,179v3c0-1-0.01-2-0.05-3H349z"/>
	<path d="M349,179h-0.05c0.04,1,0.05,2,0.05,3V179L349,179z"/>
</g>
<g>
	<path class="st0" d="M275,300c0,9.46-5.25,17.69-13,21.93V375h-25v-53.64c-7.19-4.39-12-12.31-12-21.36c0-13.81,11.19-25,25-25
		S275,286.19,275,300z"/>
</g>
</svg>
