<?xml version="1.0" encoding="utf-8"?>
<!-- Generator: Adobe Illustrator 26.0.1, SVG Export Plug-In . SVG Version: 6.00 Build 0)  -->
<svg version="1.1" id="Слой_1" xmlns="http://www.w3.org/2000/svg" xmlns:xlink="http://www.w3.org/1999/xlink" x="0px" y="0px"
	 viewBox="0 0 1340 580" style="enable-background:new 0 0 1340 580;" xml:space="preserve">
<style type="text/css">
	.st0{fill:#FFFFFF;}
</style>
<g>
	<path class="st0" d="M40,575c-19.3,0-35-15.7-35-35V40C5,20.7,20.7,5,40,5h1260c19.3,0,35,15.7,35,35v500c0,19.3-15.7,35-35,35H40z
		"/>
	<path d="M1300,10c16.54,0,30,13.46,30,30v500c0,16.54-13.46,30-30,30H40c-16.54,0-30-13.46-30-30V40c0-16.54,13.46-30,30-30H1300
		 M1300,0H40C17.91,0,0,17.91,0,40v500c0,22.09,17.91,40,40,40h1260c22.09,0,40-17.91,40-40V40C1340,17.91,1322.09,0,1300,0L1300,0z
		"/>
</g>
</svg>
