<?xml version="1.0" encoding="utf-8"?>
<!-- Generator: Adobe Illustrator 26.0.1, SVG Export Plug-In . SVG Version: 6.00 Build 0)  -->
<svg version="1.1" id="Слой_1" xmlns="http://www.w3.org/2000/svg" xmlns:xlink="http://www.w3.org/1999/xlink" x="0px" y="0px"
	 viewBox="0 0 500 500" style="enable-background:new 0 0 500 500;" xml:space="preserve">
<g>
	<path d="M250,451.5c-111.11,0-201.5-90.39-201.5-201.5S138.89,48.5,250,48.5c110.94,0,201.22,90.13,201.5,201h-50.71
		C400.52,166.58,332.98,99.21,250,99.21c-83.15,0-150.79,67.64-150.79,150.79c0,83.15,67.64,150.79,150.79,150.79
		c20.65,0,40.65-4.1,59.46-12.17l25.5,44.15C308.27,445.2,279.69,451.5,250,451.5z"/>
	<path d="M250,49c27.13,0,53.46,5.31,78.24,15.8c23.93,10.12,45.43,24.62,63.89,43.08c18.46,18.46,32.95,39.96,43.08,63.89
		c10.35,24.48,15.66,50.46,15.79,77.24h-49.71C400.74,166.04,333.09,98.71,250,98.71c-83.42,0-151.29,67.87-151.29,151.29
		S166.58,401.29,250,401.29c20.57,0,40.5-4.05,59.25-12.04l25,43.3C307.77,444.79,279.43,451,250,451
		c-27.13,0-53.46-5.31-78.24-15.8c-23.93-10.12-45.43-24.62-63.89-43.08c-18.46-18.46-32.95-39.96-43.08-63.89
		C54.31,303.46,49,277.13,49,250s5.31-53.46,15.8-78.24c10.12-23.93,24.62-45.43,43.08-63.89s39.96-32.95,63.89-43.08
		C196.54,54.31,222.87,49,250,49 M250,48C138.44,48,48,138.44,48,250s90.44,202,202,202c30.62,0,59.65-6.81,85.66-19.01
		l-25.99-45.01c-18.29,7.92-38.47,12.31-59.67,12.31C167,400.29,99.71,333,99.71,250S167,99.71,250,99.71S400.29,167,400.29,250H452
		C452,138.44,361.56,48,250,48L250,48z"/>
</g>
<g>
	<polygon points="362.87,238.55 489.13,238.55 426,347.9 	"/>
	<path d="M488.27,239.05L426,346.9l-62.27-107.85H488.27 M490,238.05H362l64,110.85L490,238.05L490,238.05z"/>
</g>
</svg>
