<?xml version="1.0" encoding="utf-8"?>
<!-- Generator: Adobe Illustrator 26.0.1, SVG Export Plug-In . SVG Version: 6.00 Build 0)  -->
<svg version="1.1" id="Слой_1" xmlns="http://www.w3.org/2000/svg" xmlns:xlink="http://www.w3.org/1999/xlink" x="0px" y="0px"
	 viewBox="0 0 500 500" style="enable-background:new 0 0 500 500;" xml:space="preserve">
<style type="text/css">
	.st0{fill:#FFFFFF;}
</style>
<g>
	<g>
		<path class="st0" d="M40,487c-14.9,0-27-12.1-27-27V40c0-14.9,12.1-27,27-27h420c14.9,0,27,12.1,27,27v420c0,14.9-12.1,27-27,27
			H40z"/>
		<path d="M460,23c9.4,0,17,7.6,17,17v420c0,9.4-7.6,17-17,17H40c-9.4,0-17-7.6-17-17V40c0-9.4,7.6-17,17-17H460 M460,3H40
			C19.6,3,3,19.6,3,40v420c0,20.4,16.6,37,37,37h420c20.4,0,37-16.6,37-37V40C497,19.6,480.4,3,460,3L460,3z"/>
	</g>
	<path d="M460,6c18.8,0,34,15.2,34,34v420c0,18.8-15.2,34-34,34H40c-18.8,0-34-15.2-34-34V40C6,21.2,21.2,6,40,6H460 M460,0H40
		C17.9,0,0,17.9,0,40v420c0,22.1,17.9,40,40,40h420c22.1,0,40-17.9,40-40V40C500,17.9,482.1,0,460,0L460,0z"/>
</g>
</svg>
