<?xml version="1.0" encoding="utf-8"?>
<!-- Generator: Adobe Illustrator 26.0.1, SVG Export Plug-In . SVG Version: 6.00 Build 0)  -->
<svg version="1.1" id="Слой_1" xmlns="http://www.w3.org/2000/svg" xmlns:xlink="http://www.w3.org/1999/xlink" x="0px" y="0px"
	 viewBox="0 0 500 500" style="enable-background:new 0 0 500 500;" xml:space="preserve">
<style type="text/css">
	.st0{fill:#FFFFFF;}
</style>
<g>
	<path class="st0" d="M40,497c-20.4,0-37-16.6-37-37V40C3,19.6,19.6,3,40,3h420c20.4,0,37,16.6,37,37v420c0,20.4-16.6,37-37,37H40z"
		/>
	<path d="M460,6c18.75,0,34,15.25,34,34v420c0,18.75-15.25,34-34,34H40c-18.75,0-34-15.25-34-34V40C6,21.25,21.25,6,40,6H460 M460,0
		H40C17.91,0,0,17.91,0,40v420c0,22.09,17.91,40,40,40h420c22.09,0,40-17.91,40-40V40C500,17.91,482.09,0,460,0L460,0z"/>
</g>
</svg>
