<?xml version="1.0" encoding="utf-8"?>
<!-- Generator: Adobe Illustrator 26.0.1, SVG Export Plug-In . SVG Version: 6.00 Build 0)  -->
<svg version="1.1" id="Слой_1" xmlns="http://www.w3.org/2000/svg" xmlns:xlink="http://www.w3.org/1999/xlink" x="0px" y="0px"
	 viewBox="0 0 600 220" style="enable-background:new 0 0 600 220;" xml:space="preserve">
<style type="text/css">
	.st0{fill:#FFFFFF;}
	.st1{fill:#808080;}
	.st2{fill:none;stroke:#000000;stroke-width:10;stroke-linecap:round;stroke-miterlimit:10;}
</style>
<g>
	<path class="st0" d="M40,215c-19.3,0-35-15.7-35-35V40C5,20.7,20.7,5,40,5h520c19.3,0,35,15.7,35,35v140c0,19.3-15.7,35-35,35H40z"
		/>
	<path d="M560,10c16.54,0,30,13.46,30,30v140c0,16.54-13.46,30-30,30H40c-16.54,0-30-13.46-30-30V40c0-16.54,13.46-30,30-30H560
		 M560,0H40C17.91,0,0,17.91,0,40v140c0,22.09,17.91,40,40,40h520c22.09,0,40-17.91,40-40V40C600,17.91,582.09,0,560,0L560,0z"/>
</g>
<g>
	<path class="st1" d="M71,180c-19.3,0-35-15.7-35-35V75c0-19.3,15.7-35,35-35h70c19.3,0,35,15.7,35,35v70c0,19.3-15.7,35-35,35H71z"
		/>
	<path d="M141,45c16.54,0,30,13.46,30,30v70c0,16.54-13.46,30-30,30H71c-16.54,0-30-13.46-30-30V75c0-16.54,13.46-30,30-30H141
		 M141,35H71c-22.09,0-40,17.91-40,40v70c0,22.09,17.91,40,40,40h70c22.09,0,40-17.91,40-40V75C181,52.91,163.09,35,141,35L141,35z"
		/>
</g>
<g>
	<line class="st2" x1="205" y1="110" x2="565" y2="110"/>
</g>
</svg>
