<?xml version="1.0" encoding="utf-8"?>
<!-- Generator: Adobe Illustrator 26.0.1, SVG Export Plug-In . SVG Version: 6.00 Build 0)  -->
<svg version="1.1" id="Слой_1" xmlns="http://www.w3.org/2000/svg" xmlns:xlink="http://www.w3.org/1999/xlink" x="0px" y="0px"
	 viewBox="0 0 500 500" style="enable-background:new 0 0 500 500;" xml:space="preserve">
<style type="text/css">
	.st0{fill:#FFFFFF;stroke:#000000;stroke-width:5;stroke-miterlimit:10;}
</style>
<path class="st0" d="M178.19,325h203.55c7.88,0,14.26-6.38,14.26-14.26v-1.48c0-7.88-6.38-14.26-14.26-14.26H203.36
	c-6.92,0-12.84-4.97-14.04-11.78L183.46,250h198.5c6.92,0,12.84-4.97,14.04-11.78v0c4.67-26.41,9.34-52.81,14.01-79.22l1.92-13.77
	c1.2-8.58-5.46-16.23-14.12-16.23H162.12l-5.07-29.18C155.87,92.99,149.94,88,143,88H49.26C41.38,88,35,94.38,35,102.26v1.48
	c0,7.88,6.38,14.26,14.26,14.26h80.46l6.28,35.6l0.95,5.4c5.35,30.33,10.7,60.67,16.05,91c3.71,21.07,7.43,42.14,11.14,63.22
	C165.34,320.03,171.27,325,178.19,325z M368.75,220H178.17l-10.76-61h212.13L368.75,220z"/>
<circle class="st0" cx="210" cy="374" r="37.5"/>
<circle class="st0" cx="350" cy="374" r="37.5"/>
</svg>
