<?xml version="1.0" encoding="utf-8"?>
<!-- Generator: Adobe Illustrator 26.0.1, SVG Export Plug-In . SVG Version: 6.00 Build 0)  -->
<svg version="1.1" id="Слой_1" xmlns="http://www.w3.org/2000/svg" xmlns:xlink="http://www.w3.org/1999/xlink" x="0px" y="0px"
	 viewBox="0 0 500 500" style="enable-background:new 0 0 500 500;" xml:space="preserve">
<style type="text/css">
	.st0{fill:#6F8D12;stroke:#000000;stroke-width:10;stroke-miterlimit:10;}
	.st1{fill:#0071BC;stroke:#000000;stroke-width:10;stroke-miterlimit:10;}
	.st2{fill:#0098BC;}
	.st3{fill:#C6ED4F;}
	.st4{fill:#A4D11A;}
	.st5{fill:#00C3CB;}
	.st6{fill:#E2C553;stroke:#000000;stroke-width:10;stroke-miterlimit:10;}
	.st7{fill:#2F8813;stroke:#000000;stroke-width:5;stroke-miterlimit:10;}
	.st8{fill:#2F8813;stroke:#000000;stroke-width:10;stroke-miterlimit:10;}
	.st9{fill:#EAF4F4;stroke:#000000;stroke-width:10;stroke-miterlimit:10;}
	.st10{fill:#EAF4F4;stroke:#000000;stroke-width:5;stroke-miterlimit:10;}
	.st11{fill:#6E4E2F;stroke:#000000;stroke-width:5;stroke-miterlimit:10;}
	.st12{fill:#6E4E2F;stroke:#000000;stroke-width:10;stroke-miterlimit:10;}
</style>
<path class="st0" d="M250,50v400c-110,0-199.3-88.9-200-198.8c0-0.4,0-0.8,0-1.2c0-20.7,3.1-40.6,9-59.4
	c13.2-42.6,40.3-79.1,76-104.3c26.1-18.4,56.9-30.7,90.1-34.8C233.3,50.5,241.6,50,250,50z"/>
<path class="st1" d="M450,250c0,24.1-4.3,47.3-12.1,68.7c-4.2,11.5-9.5,22.5-15.6,32.9c-20.7,35-51.7,63.1-88.9,80.2
	c-19.2,8.8-40,14.7-61.9,17c-7.1,0.8-14.2,1.1-21.5,1.1V50c4.2,0,8.5,0.1,12.6,0.4c14.9,0.9,29.4,3.5,43.2,7.5
	c51.2,14.9,93.9,49.6,119.2,95.4c10,18,17.2,37.6,21.3,58.5C448.7,224.1,450,236.9,450,250z"/>
<path class="st2" d="M388,250c0,107.7-62.7,195-140,195c35.9,0,65-87.3,65-195S283.9,55,248,55C325.3,55,388,142.3,388,250z"/>
<path class="st3" d="M251,55v390c-35.9,0-65-87.3-65-195S215.1,55,251,55z"/>
<path class="st4" d="M251,445c-77.3,0-140-87.3-140-195S173.7,55,251,55c-35.9,0-65,87.3-65,195S215.1,445,251,445z"/>
<path class="st5" d="M313.2,250c0,107.7-28.4,195-63.4,195V55C284.8,55,313.2,142.3,313.2,250z"/>
<g>
	<polygon class="st6" points="349.2,269.7 314.9,280.7 288.2,256.5 295.8,221.3 330.1,210.3 356.8,234.5 	"/>
	<polygon class="st6" points="377.6,235.7 406.1,230.9 424.5,253.2 414.4,280.3 385.9,285.1 367.5,262.8 	"/>
	<path class="st6" d="M446.3,211.7l-21,10.8l-30-19.2l1.7-35.6l28.1-14.5C435,171.2,442.3,190.9,446.3,211.7z"/>
</g>
<g>
	<polygon class="st7" points="377.7,204.8 359.6,211.2 345,198.7 348.5,179.9 366.6,173.5 381.2,185.9 	"/>
	<polygon class="st7" points="292.2,205.4 265,195.7 259.8,167.3 281.8,148.6 309,158.3 314.2,186.7 	"/>
	<polygon class="st7" points="329.9,160.7 327.8,149 336.8,141.3 348.1,145.3 350.2,157 341.2,164.7 	"/>
	<path class="st7" d="M437.9,318.7c-4.2,11.5-9.5,22.5-15.6,32.9l-10.2,3.5l-19.3-16.9l5-25.2l24.3-8.3L437.9,318.7z"/>
	<polygon class="st7" points="339.3,295.5 351.2,281.9 368.9,285.4 374.7,302.5 362.8,316.1 345.1,312.6 	"/>
	<polygon class="st8" points="370.7,387.3 337.6,392.1 316.9,365.8 329.3,334.7 362.4,329.9 383.1,356.2 	"/>
</g>
<g>
	<path class="st9" d="M307.9,64l-15.4,19.9l-24.9-3.4l-9.5-23.2l4.5-5.8c14.9,0.9,29.4,3.5,43.2,7.5L307.9,64z"/>
	<polygon class="st10" points="313.2,79 332,81.5 339.3,98.9 327.8,114 309,111.5 301.7,94.1 	"/>
	<polygon class="st10" points="295.2,101.7 292.3,115.3 279.1,119.5 268.8,110.3 271.7,96.7 284.9,92.5 	"/>
	<path class="st9" d="M333.3,431.9c-19.2,8.8-40,14.7-61.9,17l6.5-25.3l36.4-10.2L333.3,431.9z"/>
</g>
<g>
	<polygon class="st11" points="126,170.4 103.3,168.9 93.3,148.4 106,129.6 128.7,131.1 138.7,151.6 	"/>
	<polygon class="st12" points="132.7,233.1 121,189 153.4,156.9 197.3,168.9 209,213 176.6,245.1 	"/>
	<polygon class="st12" points="157.5,338.5 112.4,347.6 81.9,313.2 96.5,269.5 141.6,260.4 172.1,294.8 	"/>
	<polygon class="st11" points="189.8,279.8 186.7,253.5 207.9,237.7 232.2,248.2 235.3,274.5 214.1,290.3 	"/>
	<path class="st12" d="M96.5,208.4L92.2,244l-33,14.1l-9.2-6.9c0-0.4,0-0.8,0-1.2c0-20.7,3.1-40.6,9-59.4l8.8-3.8L96.5,208.4z"/>
	<polygon class="st11" points="244.6,361.6 222.1,387.4 188.5,380.8 177.4,348.4 199.9,322.6 233.5,329.2 	"/>
	<path class="st12" d="M225.1,51.5l-6.4,32.1L156,104.9L135,86.4C161.1,68,191.8,55.7,225.1,51.5z"/>
</g>
</svg>
