<?xml version="1.0" encoding="utf-8"?>
<!-- Generator: Adobe Illustrator 26.0.1, SVG Export Plug-In . SVG Version: 6.00 Build 0)  -->
<svg version="1.1" id="Слой_1" xmlns="http://www.w3.org/2000/svg" xmlns:xlink="http://www.w3.org/1999/xlink" x="0px" y="0px"
	 viewBox="0 0 300 150" style="enable-background:new 0 0 300 150;" xml:space="preserve">
<style type="text/css">
	.st0{fill:#FFFFFF;}
</style>
<g>
	<path class="st0" d="M285,10c2.76,0,5,2.24,5,5v120c0,2.76-2.24,5-5,5H15c-2.76,0-5-2.24-5-5V15c0-2.76,2.24-5,5-5H285 M285,0H15
		C6.72,0,0,6.72,0,15v120c0,8.28,6.72,15,15,15h270c8.28,0,15-6.72,15-15V15C300,6.72,293.28,0,285,0L285,0z"/>
</g>
</svg>
